<svg xmlns="http://www.w3.org/2000/svg" width="16.099" height="16.099" viewBox="0 0 16.099 16.099">
  <path id="Icon_awesome-plus" data-name="Icon awesome-plus" d="M14.949,8.575H9.774V3.4a1.15,1.15,0,0,0-1.15-1.15H7.474A1.15,1.15,0,0,0,6.325,3.4V8.575H1.15A1.15,1.15,0,0,0,0,9.724v1.15a1.15,1.15,0,0,0,1.15,1.15H6.325V17.2a1.15,1.15,0,0,0,1.15,1.15h1.15a1.15,1.15,0,0,0,1.15-1.15V12.024h5.175a1.15,1.15,0,0,0,1.15-1.15V9.724A1.15,1.15,0,0,0,14.949,8.575Z" transform="translate(0 -2.25)" fill="#fffcfc"/>
</svg>
