<svg xmlns="http://www.w3.org/2000/svg" width="88.509" height="40.451" viewBox="0 0 88.509 40.451">
  <g id="Groupe_142" data-name="Groupe 142" transform="translate(-246.709 -400.835)">
    <g id="Groupe_139" data-name="Groupe 139">
      <path id="Tracé_20" data-name="Tracé 20" d="M246.709,400.835h17.82c6.96,0,11.22,4.2,11.22,10.2a9.1,9.1,0,0,1-7.02,9.18c4.259.66,7.8,5.039,7.8,9.839,0,6.42-4.259,10.8-11.579,10.8h-18.24Zm16.98,17.34c4.5,0,6.9-2.76,6.9-6.42,0-3.6-2.4-6.48-6.9-6.48h-12v12.9Zm.24,18.239c4.68,0,7.44-2.64,7.44-6.9,0-3.661-2.52-6.9-7.44-6.9h-12.24v13.8Z" fill="#fffcfc"/>
    </g>
    <g id="Groupe_140" data-name="Groupe 140">
      <path id="Tracé_21" data-name="Tracé 21" d="M277.7,432.144c0-5.04,3.312-9.107,8.6-9.107s8.6,4.067,8.6,9.107-3.312,9.142-8.6,9.142S277.7,437.183,277.7,432.144Zm14.362,0c0-3.528-2.052-6.7-5.759-6.7s-5.8,3.168-5.8,6.7c0,3.563,2.088,6.731,5.8,6.731S292.067,435.707,292.067,432.144Z" fill="#fffcfc"/>
      <path id="Tracé_22" data-name="Tracé 22" d="M298.3,432.144c0-5.04,3.312-9.107,8.6-9.107s8.6,4.067,8.6,9.107-3.312,9.142-8.6,9.142S298.3,437.183,298.3,432.144Zm14.363,0c0-3.528-2.052-6.7-5.759-6.7s-5.8,3.168-5.8,6.7c0,3.563,2.088,6.731,5.8,6.731S312.659,435.707,312.659,432.144Z" fill="#fffcfc"/>
      <path id="Tracé_23" data-name="Tracé 23" d="M325.477,433.044l-2.88,2.843v4.967h-2.7V416.846h2.7V432.72l9.142-9.251h3.42l-7.7,7.883,7.739,9.5h-3.456Z" fill="#fffcfc"/>
    </g>
    <path id="Tracé_24" data-name="Tracé 24" d="M277.728,411.385c0-5.039,3.311-9.106,8.6-9.106s8.6,4.067,8.6,9.106-3.312,9.143-8.6,9.143S277.728,416.424,277.728,411.385Zm14.362,0c0-3.527-2.052-6.7-5.759-6.7s-5.8,3.168-5.8,6.7c0,3.564,2.088,6.732,5.8,6.732S292.09,414.949,292.09,411.385Z" fill="#fffcfc"/>
    <path id="Tracé_25" data-name="Tracé 25" d="M298.319,411.385c0-5.039,3.312-9.106,8.6-9.106s8.6,4.067,8.6,9.106-3.311,9.143-8.6,9.143S298.319,416.424,298.319,411.385Zm14.363,0c0-3.527-2.052-6.7-5.759-6.7s-5.8,3.168-5.8,6.7c0,3.564,2.088,6.732,5.8,6.732S312.682,414.949,312.682,411.385Z" fill="#fffcfc"/>
    <g id="Groupe_141" data-name="Groupe 141">
      <path id="Tracé_26" data-name="Tracé 26" d="M298.078,423.8a2.508,2.508,0,0,1-1.919.8,1.929,1.929,0,0,1-2.028-1.918,1.9,1.9,0,0,1,2.028-1.906,2.424,2.424,0,0,1,1.919.791v-1.043c0-.78-.624-1.224-1.463-1.224a2.3,2.3,0,0,0-1.776.8l-.42-.624a3.033,3.033,0,0,1,2.316-.959c1.223,0,2.242.552,2.242,1.955v3.981h-.9Zm0-1.656a1.941,1.941,0,0,0-1.6-.719,1.274,1.274,0,1,0,0,2.53,1.936,1.936,0,0,0,1.6-.72Z" fill="#fffcfc"/>
    </g>
    <path id="Tracé_27" data-name="Tracé 27" d="M335.182,402.71h-3.42l-9.143,9.251V401.279h-2.7V420.1h2.7v-4.968l2.88-2.843,6.263,7.811h3.456l-7.739-9.5Z" fill="#fffcfc"/>
  </g>
</svg>
