<svg xmlns="http://www.w3.org/2000/svg" width="1210.984" height="945.772" viewBox="0 0 1210.984 945.772">
  <g id="Groupe_143" data-name="Groupe 143" transform="translate(3700.631 -7107)">
    <g id="thank-you" transform="translate(-3431 7107)">
      <path id="Tracé_28" data-name="Tracé 28" d="M911.907,7.574H187.023C87.916,7.574,7.57,68.691,7.57,144.087V510.91c0,75.4,80.346,136.52,179.452,136.52h56.046V835.24L548.7,647.431H911.907c99.107,0,179.443-61.124,179.443-136.52V144.087c0-75.4-80.336-136.513-179.443-136.513Zm0,0" transform="translate(-252.868 6.417)" fill="#aa0202"/>
      <path id="Tracé_29" data-name="Tracé 29" d="M376.68,379.007a268.669,268.669,0,0,0-14.034,268.1A268.848,268.848,0,0,0,615.67,256.723,268.653,268.653,0,0,0,376.68,379.007Zm0,0" transform="translate(282.478 217.223)" fill="#d6a55d"/>
      <path id="Tracé_38" data-name="Tracé 38" d="M866.064,653.844c0-7.721-9.084-13.984-20.306-13.984H556.543a25.744,25.744,0,0,0-14.271,4.034L300.772,808.18V653.844c0-7.721-9.095-13.984-20.316-13.984H218.543c-98.113,0-177.932-54.969-177.932-122.536V150.5c0-67.56,79.819-122.529,177.932-122.529h3.039c11.222,0,20.306-6.263,20.306-13.984S232.8,0,221.582,0h-3.039C98.04,0,0,67.514,0,150.5V517.324c0,82.987,98.04,150.5,218.543,150.5H260.15V841.654c0,5.643,4.924,10.73,12.479,12.9a28.4,28.4,0,0,0,7.827,1.082,25.708,25.708,0,0,0,14.271-4.034L564.883,667.828H845.758C856.98,667.828,866.064,661.565,866.064,653.844Zm0,0" transform="translate(-269.631 0.004)"/>
      <path id="Tracé_39" data-name="Tracé 39" d="M819.529,467.611a14,14,0,0,0-11.783-7.634,283.374,283.374,0,0,0-46.375,1.537V150.5c0-82.98-67.51-150.5-150.5-150.5H121.507a13.984,13.984,0,0,0,0,27.968H610.867A122.667,122.667,0,0,1,733.4,150.5V466.183A282.664,282.664,0,0,0,538,863.347l-39.426,60.828a13.987,13.987,0,1,0,23.473,15.218l39.426-60.828c1.84.036,3.687.065,5.534.065A286.126,286.126,0,0,0,675.223,857.3a13.985,13.985,0,0,0-10.636-25.868,257.993,257.993,0,0,1-84.813,18.883L619.98,788.29l70.432-10.809a13.987,13.987,0,0,0-4.243-27.65l-45.827,7.035,43.063-66.427,50.676-7.779a13.983,13.983,0,0,0-4.243-27.643l-26.07,4L757.641,575.9a13.987,13.987,0,1,0-23.473-15.218l-50.842,78.442-3.153-20.557a13.987,13.987,0,0,0-27.65,4.243l7.923,51.621L619.9,736.972l-6.184-40.314a13.983,13.983,0,0,0-27.643,4.243l10.946,71.377-40.74,62.856A255.9,255.9,0,0,1,579.8,603.843c47.746-73.665,130.907-117.63,218.375-116.194a255.842,255.842,0,0,1-16.892,246.79,252.78,252.78,0,0,1-76.212,75.938,13.983,13.983,0,0,0,15.081,23.552A283.207,283.207,0,0,0,849.994,608.324,284.338,284.338,0,0,0,819.529,467.611Zm0,0" transform="translate(91.095)"/>
    </g>
    <text id="MERCI" transform="translate(-3477 7519)" font-size="200" font-family="HelveticaNeue-Medium, Helvetica Neue" font-weight="500" letter-spacing="0.06em"><tspan x="0" y="0">MERCI</tspan></text>
  </g>
</svg>
